Coordinates
version=1
nRows=27
nColumns=38
inDegrees=no

Units are S.I. units (second, meters, Newtons, ...)
If the header above contains a line with 'inDegrees', this indicates whether rotational values are in degrees (yes) or radians (no).

endheader
time	pelvis_tilt	pelvis_list	pelvis_rotation	pelvis_tx	pelvis_ty	pelvis_tz	hip_flexion_r	hip_adduction_r	hip_rotation_r	knee_angle_r	ankle_angle_r	subtalar_angle_r	mtp_angle_r	hip_flexion_l	hip_adduction_l	hip_rotation_l	knee_angle_l	ankle_angle_l	subtalar_angle_l	mtp_angle_l	lumbar_extension	lumbar_bending	lumbar_rotation	arm_flex_r	arm_add_r	arm_rot_r	elbow_flex_r	pro_sup_r	wrist_flex_r	wrist_dev_r	arm_flex_l	arm_add_l	arm_rot_l	elbow_flex_l	pro_sup_l	wrist_flex_l	wrist_dev_l
105	-1.43003	1.33749	0.812737	1.02104	-0.85818	0.98958	-0.0585974	0.141558	-0.53222	0.0390978	-0.105522	0	0	0.52509	-0.211681	-0.418249	0.171154	-0.216707	0	0	-0.052933	0.188025	0.0308433	0.0256486	-0.439991	0.919141	0.49349	0.986526	0	0	-0.0783557	-0.333872	0.837737	0.460748	0.823286	0	0
105.01	-1.42393	1.33546	0.821244	1.02827	-0.858285	0.988354	-0.0568066	0.137499	-0.54061	0.0559766	-0.101247	0	0	0.523572	-0.198357	-0.43391	0.150124	-0.214478	0	0	-0.0493462	0.18285	0.0333508	0.0242312	-0.436939	0.921464	0.483478	0.97848	0	0	-0.0827922	-0.334473	0.841903	0.45105	0.802998	0	0
105.02	-1.31553	1.38906	0.727525	1.03392	-0.859635	0.994	-0.113741	0.109966	-0.561829	0.0699097	-0.0991702	0	0	0.468479	-0.164049	-0.4765	0.156103	-0.234651	0	0	-0.122385	0.14294	0.0383233	0.0647903	-0.426409	1.01849	0.464311	0.866387	0	0	-0.0717474	-0.353707	0.838221	0.456616	0.784197	0	0
105.03	-1.37368	1.34426	0.80752	1.04287	-0.858249	0.986757	-0.0723016	0.129108	-0.564313	0.0844111	-0.090109	0	0	0.502833	-0.163449	-0.425218	0.118033	-0.230379	0	0	-0.0664345	0.167995	0.0402501	0.140141	-0.466058	1.43845	0.479387	0.465804	0	0	-0.0896588	-0.342924	0.814162	0.446171	0.804197	0	0
105.04	-1.30148	1.35514	0.753971	1.05084	-0.857879	0.987787	-0.0996217	0.13086	-0.557391	0.0817879	-0.091312	0	0	0.480034	-0.153261	-0.43752	0.110029	-0.229419	0	0	-0.0892661	0.162287	0.0425387	0.144665	-0.453447	1.45212	0.453919	0.46073	0	0	-0.0917217	-0.343502	0.789181	0.439083	0.810441	0	0
105.05	-1.55552	1.43335	0.99693	1.05817	-0.862839	0.985312	-0.158403	0.0501069	-0.421665	0.0424749	-0.0580858	0	0	0.418916	-0.0728972	-0.559501	0.0818113	-0.220487	0	0	-0.1211	0.0478552	0.0529003	0.148516	-0.416429	1.47307	0.432139	0.448249	0	0	-0.121896	-0.401437	0.756159	0.504541	0.799232	0	0
105.06	-1.78501	1.45804	1.26062	1.06328	-0.866372	0.987303	-0.198321	0.0292952	-0.354427	0	-0.0609142	0	0	0.403262	-0.0149286	-0.513819	0.0655697	-0.248917	0	0	-0.14109	-0.0140464	0.0310026	0.149864	-0.358257	1.49783	0.367154	0.460457	0	0	-0.126513	-0.435316	0.728728	0.513618	0.791181	0	0
105.07	-0.661636	1.30465	0.189106	1.0734	-0.853782	0.999592	-0.274688	0.267576	-0.387505	0	-0.210244	0	0	0.377057	-0.245582	-0.404566	0.138972	-0.198013	0	0	-0.244547	0.261568	0.0531191	0.194737	-0.449278	1.50905	0.407954	0.471964	0	0	-0.0829107	-0.312905	0.648731	0.40711	0.842092	0	0
105.08	-0.416651	1.38596	-0.0743935	1.07778	-0.860764	1.00877	-0.347012	0.183562	-0.361514	0	-0.215255	0	0	0.27524	-0.171688	-0.497486	0.0976311	-0.247005	0	0	-0.328129	0.142154	0.0794416	0.212717	-0.380908	1.5708	0.344265	0.362864	0	0	-0.0741542	-0.349169	0.605699	0.416625	0.848648	0	0
105.09	-0.411818	1.38341	-0.0672349	1.08639	-0.86118	1.00747	-0.349541	0.183098	-0.349977	0	-0.214739	0	0	0.272104	-0.168916	-0.489573	0.0994994	-0.247325	0	0	-0.326028	0.137506	0.0885298	0.205445	-0.37656	1.5708	0.333999	0.360516	0	0	-0.0789689	-0.349565	0.588143	0.408192	0.839812	0	0
105.1	-0.0158995	1.39962	-0.480028	1.09113	-0.864377	1.01566	-0.407115	0.133391	-0.353157	0.0225639	-0.215946	0	0	0.184012	-0.132375	-0.580916	0.0694506	-0.289776	0	0	-0.413697	0.0748043	0.114842	0.223263	-0.352953	1.5708	0.309061	0.352001	0	0	-0.0707297	-0.363794	0.539	0.416264	0.834223	0	0
105.11	-1.66994	1.48566	1.19933	1.10199	-0.871517	0.988154	-0.207923	0.00044445	-0.423939	0.142703	-0.0639173	0	0	0.362023	-0.00268167	-0.544701	0.103666	-0.255572	0	0	-0.193119	-0.0700024	0.0642535	0.154709	-0.289543	1.57011	0.269225	0.344706	0	0	-0.160295	-0.439053	0.522747	0.48013	0.798729	0	0
105.12	-1.70977	1.39468	1.31014	1.116	-0.864749	0.974761	-0.0878652	-0.00582593	-0.583282	0.263224	-0.0333095	0	0	0.473921	0.00272123	-0.422201	0.147765	-0.217366	0	0	-0.0712484	-0.0398403	0.0152014	0.11719	-0.295827	1.56333	0.265368	0.345774	0	0	-0.196402	-0.425067	0.50009	0.460618	0.778305	0	0
105.13	-1.5698	1.33603	1.19834	1.12398	-0.858792	0.970916	-0.0160383	0.019879	-0.590169	0.332822	-0.0407385	0	0	0.539885	-0.0253445	-0.3454	0.18362	-0.197846	0	0	-0.0181614	0.0104317	0.0120931	0.10643	-0.3114	1.55014	0.260583	0.349381	0	0	-0.186821	-0.388334	0.479134	0.407616	0.767541	0	0
105.14	-1.58709	1.31171	1.24685	1.13153	-0.855887	0.968063	0.0261948	0.00474752	-0.603105	0.396149	-0.0430524	0	0	0.571597	-0.00479301	-0.264946	0.196399	-0.247919	0	0	0.00766594	0.00480445	-0.00230036	0.100674	-0.304848	1.53571	0.249131	0.354822	0	0	-0.190292	-0.386757	0.457182	0.396747	0.754767	0	0
105.15	-1.58091	1.30781	1.26381	1.13991	-0.854338	0.967338	0.0428946	-0.0101912	-0.602305	0.452718	-0.0585845	0	0	0.588183	-0.00548931	-0.283265	0.245055	-0.182534	0	0	0.00779077	-0.0011429	-0.00335211	0.0802058	-0.187731	0.323759	0.066142	1.5708	0	0	-0.183532	-0.390652	0.472246	0.387201	0.713876	0	0
105.16	-1.57413	1.30249	1.28104	1.14811	-0.852215	0.966751	0.0626743	-0.025671	-0.598012	0.511416	-0.0787329	0	0	0.600646	0.00290307	-0.267927	0.274925	-0.17907	0	0	0.0109015	-0.00765586	-0.00868559	0.0830697	-0.185338	0.315816	0.0606832	1.5708	0	0	-0.18056	-0.393751	0.476746	0.380358	0.687854	0	0
105.17	-1.56312	1.30024	1.29247	1.15644	-0.850173	0.966622	0.0795832	-0.0412711	-0.589925	0.569779	-0.103744	0	0	0.607965	0.0103055	-0.258014	0.301704	-0.179567	0	0	0.0107939	-0.0137944	-0.0103891	0.0855414	-0.183362	0.309372	0.0556308	1.5708	0	0	-0.174951	-0.398012	0.488831	0.374188	0.665277	0	0
105.18	-1.55272	1.29788	1.306	1.16413	-0.847688	0.966623	0.0986035	-0.0579168	-0.580955	0.629381	-0.133436	0	0	0.609824	0.0276284	-0.213161	0.308785	-0.242252	0	0	0.00936891	-0.0197611	-0.0151859	0.091535	-0.181049	0.30769	0.0493763	1.5708	0	0	-0.167916	-0.402804	0.504116	0.369155	0.644777	0	0
105.19	-1.53029	1.30424	1.298	1.17255	-0.846512	0.96733	0.107362	-0.0711651	-0.561372	0.684246	-0.169701	0	0	0.607474	0.0200362	-0.248057	0.34291	-0.184523	0	0	-0.000710482	-0.0245649	-0.00995032	0.0973143	-0.179099	0.311392	0.0440496	1.5708	0	0	-0.160916	-0.408608	0.521969	0.366568	0.628886	0	0
105.2	-1.51716	1.30121	1.29982	1.18056	-0.844853	0.967031	0.128508	-0.0847936	-0.541114	0.740207	-0.204778	0	0	0.611162	0.0226784	-0.24585	0.360746	-0.183797	0	0	0.00174165	-0.0283507	-0.0056038	0.100771	-0.178293	0.319716	0.0400715	1.5708	0	0	-0.155873	-0.412462	0.534117	0.363466	0.625986	0	0
105.21	-1.49984	1.29636	1.2951	1.18828	-0.843244	0.966465	0.152516	-0.0955612	-0.517236	0.794303	-0.227559	0	0	0.615358	0.0233946	-0.243535	0.375775	-0.179476	0	0	0.00629279	-0.0295815	0.000230559	0.104982	-0.178339	0.328351	0.0367735	1.5708	0	0	-0.151911	-0.414621	0.539748	0.361219	0.630589	0	0
105.22	-1.26217	1.22232	1.09964	1.194	-0.836851	0.958207	0.21495	-0.0123502	-0.518938	0.834138	-0.262793	0	0	0.698606	-0.0447153	-0.15809	0.463651	-0.139191	0	0	0.0624757	0.0776064	-0.0227411	0.111715	-0.201866	0.346615	0.0187537	1.5708	0	0	-0.162261	-0.389261	0.534821	0.364014	0.645702	0	0
105.23	-1.4645	1.29392	1.28078	1.20379	-0.839857	0.965865	0.192424	-0.115921	-0.46488	0.891165	-0.276609	0	0	0.615455	0.023172	-0.25856	0.408989	-0.163164	0	0	0.00821881	-0.0320721	0.0127467	0.11557	-0.180864	0.359188	0.0359589	1.5708	0	0	-0.145851	-0.418885	0.549938	0.363423	0.648436	0	0
105.24	-1.23453	1.23886	1.08771	1.21032	-0.833733	0.9596	0.23303	-0.0423026	-0.465515	0.922056	-0.287186	0	0	0.669862	-0.0369676	-0.186633	0.479817	-0.122957	0	0	0.0446008	0.0644802	-0.00717507	0.125093	-0.2032	0.380129	0.0233062	1.5708	0	0	-0.155755	-0.396594	0.546829	0.370072	0.667729	0	0
105.25	-1.69125	1.3641	1.52125	1.22359	-0.839344	0.96876	0.160015	-0.221307	-0.417352	0.9852	-0.259975	0	0	0.531732	0.0804864	-0.390463	0.419518	-0.16369	0	0	-0.0531316	-0.124881	0.0135221	0.136999	-0.160365	0.394001	0.0354471	1.5708	0	0	-0.166909	-0.471381	0.549302	0.433877	0.677363	0	0
105.26	-1.34137	1.39555	1.15887	1.23336	-0.83464	0.974983	0.126278	-0.164843	-0.365893	0.985935	-0.279745	0	0	0.474632	0.00825678	-0.455576	0.441335	-0.146971	0	0	-0.10223	-0.0552876	0.052512	0.148058	-0.192813	0.431838	0.0487098	1.56214	0	0	-0.137892	-0.421434	0.528396	0.386881	0.7296	0	0
